HIERARCHY
ROOT Hips
{
	OFFSET 0.00 0.00 0.00
	CHANNELS 6 Xposition Yposition Zposition Xrotation Yrotation Zrotation
	JOINT Spine
	{
		OFFSET 0.00000 1.15266 1.72900
		CHANNELS 3 Xrotation Yrotation Zrotation
		JOINT Spine1
		{
			OFFSET 0.00000 0.40032 2.27031
			CHANNELS 3 Xrotation Yrotation Zrotation
			JOINT Spine2
			{
				OFFSET 0.00000 0.20092 2.29656
				CHANNELS 3 Xrotation Yrotation Zrotation
				JOINT Spine3
				{
					OFFSET 0.00000 0.00000 2.30533
					CHANNELS 3 Xrotation Yrotation Zrotation
					JOINT Neck
					{
						OFFSET 0.00000 -0.86449 6.05149
						CHANNELS 3 Xrotation Yrotation Zrotation
						JOINT Head
						{
							OFFSET 0.00000 -0.55043 3.12167
							CHANNELS 3 Xrotation Yrotation Zrotation
							End Site
							{
								OFFSET 0.00000 0.00000 3.73175
							}
						}
					}
					JOINT RightShoulder
					{
						OFFSET -0.78828 -1.31380 4.25672
						CHANNELS 3 Xrotation Yrotation Zrotation
						JOINT RightArm
						{
							OFFSET -3.91513 0.00000 0.00000
							CHANNELS 3 Xrotation Yrotation Zrotation
							JOINT RightForeArm
							{
								OFFSET -6.91491 0.00000 0.00000
								CHANNELS 3 Xrotation Yrotation Zrotation
								JOINT RightHand
								{
									OFFSET -6.09622 0.00000 0.00000
									CHANNELS 3 Xrotation Yrotation Zrotation
									JOINT RightHandEnd
									{
										OFFSET -1.74995 0.00000 0.00000
										CHANNELS 3 Xrotation Yrotation Zrotation
										End Site
										{
											OFFSET -1.74995 0.00000 0.00000
										}
									}
									JOINT RightHandThumb1
									{
										OFFSET -0.69998 -1.16663 -0.46665
										CHANNELS 3 Yrotation Xrotation Zrotation
										End Site
										{
											OFFSET -1.69032 -0.45292 0.00000
										}
									}
								}
							}
						}
					}
					JOINT LeftShoulder
					{
						OFFSET 0.78828 -1.31380 4.25672
						CHANNELS 3 Xrotation Yrotation Zrotation
						JOINT LeftArm
						{
							OFFSET 3.91513 0.00000 0.00000
							CHANNELS 3 Xrotation Yrotation Zrotation
							JOINT LeftForeArm
							{
								OFFSET 6.91491 0.00000 0.00000
								CHANNELS 3 Xrotation Yrotation Zrotation
								JOINT LeftHand
								{
									OFFSET 6.09622 0.00000 0.00000
									CHANNELS 3 Xrotation Yrotation Zrotation
									JOINT LeftHandEnd
									{
										OFFSET 1.74995 0.00000 0.00000
										CHANNELS 3 Xrotation Yrotation Zrotation
										End Site
										{
											OFFSET 1.74995 0.00000 0.00000
										}
									}
									JOINT LeftHandThumb1
									{
										OFFSET 0.69998 -1.16663 -0.46665
										CHANNELS 3 Yrotation Xrotation Zrotation
										End Site
										{
											OFFSET 1.69032 -0.45292 0.00000
										}
									}
								}
							}
						}
					}
				}
			}
		}
	}
	JOINT RightUpLeg
	{
		OFFSET -2.33857 0.00000 -0.68318
		CHANNELS 3 Xrotation Yrotation Zrotation
		JOINT RightLeg
		{
			OFFSET 0.00000 0.00000 -10.74496
			CHANNELS 3 Xrotation Yrotation Zrotation
			JOINT RightFoot
			{
				OFFSET 0.00000 0.00000 -10.93085
				CHANNELS 3 Xrotation Yrotation Zrotation
				JOINT RightToeBase
				{
					OFFSET 0.00000 -4.08727 -1.48765
					CHANNELS 3 Xrotation Yrotation Zrotation
					End Site
					{
						OFFSET 0.00000 -1.89187 -0.00000
					}
				}
			}
		}
	}
	JOINT LeftUpLeg
	{
		OFFSET 2.33857 0.00000 -0.68318
		CHANNELS 3 Xrotation Yrotation Zrotation
		JOINT LeftLeg
		{
			OFFSET 0.00000 0.00000 -10.74496
			CHANNELS 3 Xrotation Yrotation Zrotation
			JOINT LeftFoot
			{
				OFFSET 0.00000 0.00000 -10.93085
				CHANNELS 3 Xrotation Yrotation Zrotation
				JOINT LeftToeBase
				{
					OFFSET 0.00000 -4.08727 -1.48765
					CHANNELS 3 Xrotation Yrotation Zrotation
					End Site
					{
						OFFSET 0.00000 -1.89187 -0.00000
					}
				}
			}
		}
	}
}
MOTION
Frames: 18
Frame Time: 0.008342
 -2.6667 -46.1459 24.8591 -3.3894 -0.7577 172.9817 3.0564 -1.3343 -0.0156 1.3956 -2.3032 -0.1102 3.7761 2.8114 6.2463 -1.7022 2.7768 0.1329 -4.2926 3.4912 -11.4373 8.9789 -6.4566 -17.4581 -4.7166 -5.8142 1.1002 -7.1072 -4.7080 -5.0437 0.0000 0.0000 16.0299 -1.5805 6.2085 -1.1248 -0.0000 0.0000 0.0000 0.0000 -0.0000 -0.0000 -7.5531 8.0120 3.9455 10.2476 2.5345 -6.9587 -0.0000 -0.0000 -3.5180 8.2491 -1.4083 5.3677 -0.0000 -0.0000 -0.0000 -0.0000 -0.0000 0.0000 -4.7527 -2.4702 1.2082 7.4163 0.0000 0.0000 -5.4369 -0.5991 5.2967 7.0646 0.0000 0.0000 -6.3154 -3.3604 8.6966 10.2903 0.0000 0.0000 -9.5589 0.1516 1.4032 -1.0166 0.0000 -0.0000
 -2.6679 -46.1456 24.8598 -3.3918 -0.7742 172.9793 3.0571 -1.3402 -0.0136 1.3958 -2.3125 -0.1121 3.7762 2.8247 6.2498 -1.7011 2.7735 0.1349 -4.2875 3.4872 -11.4426 8.9728 -6.4551 -17.4649 -4.7189 -5.8234 1.0943 -7.0917 -4.7012 -5.0384 0.0000 0.0000 16.0288 -1.5381 6.2177 -1.1170 0.0000 -0.0000 -0.0000 -0.0000 -0.0000 0.0000 -7.5553 8.0175 3.9472 10.2353 2.5283 -6.9590 -0.0000 -0.0000 -3.5088 8.2545 -1.4105 5.3509 0.0000 -0.0000 0.0000 -0.0000 -0.0000 -0.0000 -4.7583 -2.4854 1.2115 7.4091 0.0000 0.0000 -5.4279 -0.6951 5.2661 7.0759 0.0000 0.0000 -6.3170 -3.3778 8.7304 10.2958 0.0000 0.0000 -9.5617 0.1515 1.3711 -1.0160 0.0000 -0.0000
 -2.6693 -46.1453 24.8605 -3.3959 -0.7974 172.9791 3.0586 -1.3514 -0.0137 1.3946 -2.3154 -0.1125 3.7763 2.8328 6.2538 -1.6996 2.7715 0.1355 -4.2811 3.4816 -11.4485 8.9658 -6.4530 -17.4737 -4.7221 -5.8347 1.0881 -7.0722 -4.6942 -5.0323 0.0000 0.0000 16.0264 -1.4851 6.2302 -1.1088 -0.0000 -0.0000 0.0000 -0.0000 -0.0000 0.0000 -7.5598 8.0238 3.9504 10.2226 2.5198 -6.9601 -0.0000 -0.0000 -3.4961 8.2595 -1.4175 5.3267 0.0000 0.0000 -0.0000 -0.0000 0.0000 -0.0000 -4.7632 -2.5078 1.2046 7.3905 0.0000 0.0000 -5.4092 -0.8034 5.2280 7.0830 0.0000 0.0000 -6.3213 -3.4015 8.7602 10.3046 0.0000 0.0000 -9.5666 0.1559 1.3408 -1.0211 0.0000 -0.0000
 -2.6709 -46.1449 24.8614 -3.4029 -0.8253 172.9792 3.0583 -1.3650 -0.0148 1.3922 -2.3171 -0.1108 3.7788 2.8414 6.2581 -1.6988 2.7692 0.1365 -4.2736 3.4761 -11.4576 8.9588 -6.4512 -17.4833 -4.7251 -5.8496 1.0791 -7.0494 -4.6844 -5.0238 0.0000 0.0000 16.0230 -1.4252 6.2438 -1.1013 0.0000 0.0000 0.0000 0.0000 -0.0000 0.0000 -7.5643 8.0350 3.9537 10.2077 2.5041 -6.9627 -0.0000 -0.0000 -3.4807 8.2641 -1.4264 5.2957 0.0000 -0.0000 -0.0000 0.0000 0.0000 -0.0000 -4.7689 -2.5361 1.1895 7.3602 0.0000 0.0000 -5.3802 -0.9185 5.1809 7.0855 0.0000 0.0000 -6.3285 -3.4297 8.7867 10.3149 0.0000 0.0000 -9.5725 0.1652 1.3138 -1.0325 0.0000 -0.0000
 -2.6728 -46.1444 24.8624 -3.4101 -0.8558 172.9769 3.0580 -1.3790 -0.0123 1.3927 -2.3184 -0.1121 3.7775 2.8518 6.2647 -1.6968 2.7666 0.1370 -4.2658 3.4692 -11.4657 8.9519 -6.4493 -17.4951 -4.7298 -5.8673 1.0713 -7.0227 -4.6744 -5.0166 0.0000 0.0000 16.0188 -1.3589 6.2590 -1.0918 -0.0000 0.0000 0.0000 -0.0000 -0.0000 0.0000 -7.5728 8.0440 3.9598 10.1927 2.4892 -6.9669 -0.0000 -0.0000 -3.4648 8.2682 -1.4412 5.2603 -0.0000 0.0000 -0.0000 0.0000 -0.0000 -0.0000 -4.7743 -2.5682 1.1687 7.3208 0.0000 0.0000 -5.3416 -1.0340 5.1246 7.0796 0.0000 0.0000 -6.3310 -3.4592 8.8116 10.3179 0.0000 0.0000 -9.5761 0.1793 1.2917 -1.0503 0.0000 -0.0000
 -2.6749 -46.1438 24.8634 -3.4185 -0.8889 172.9751 3.0577 -1.3934 -0.0116 1.3925 -2.3200 -0.1114 3.7774 2.8640 6.2713 -1.6956 2.7640 0.1383 -4.2573 3.4627 -11.4760 8.9463 -6.4481 -17.5071 -4.7352 -5.8867 1.0617 -6.9945 -4.6643 -5.0095 0.0000 0.0000 16.0150 -1.2897 6.2745 -1.0834 0.0000 -0.0000 0.0000 -0.0000 0.0000 0.0000 -7.5821 8.0556 3.9652 10.1764 2.4694 -6.9706 -0.0000 -0.0000 -3.4486 8.2720 -1.4588 5.2203 0.0000 0.0000 -0.0000 -0.0000 -0.0000 0.0000 -4.7779 -2.6041 1.1364 7.2680 0.0000 0.0000 -5.2919 -1.1427 5.0619 7.0656 0.0000 0.0000 -6.3340 -3.4902 8.8277 10.3205 0.0000 0.0000 -9.5800 0.1975 1.2781 -1.0744 0.0000 -0.0000
 -2.6771 -46.1432 24.8645 -3.4276 -0.9230 172.9728 3.0575 -1.4071 -0.0105 1.3926 -2.3219 -0.1106 3.7771 2.8780 6.2783 -1.6949 2.7614 0.1398 -4.2492 3.4566 -11.4864 8.9426 -6.4477 -17.5186 -4.7412 -5.9072 1.0516 -6.9662 -4.6551 -5.0030 0.0000 0.0000 16.0116 -1.2199 6.2894 -1.0756 -0.0000 -0.0000 0.0000 0.0000 -0.0000 0.0000 -7.5939 8.0669 3.9706 10.1596 2.4484 -6.9732 -0.0000 -0.0000 -3.4345 8.2748 -1.4808 5.1779 0.0000 -0.0000 -0.0000 0.0000 0.0000 0.0000 -4.7803 -2.6424 1.0944 7.2036 0.0000 0.0000 -5.2317 -1.2379 4.9937 7.0423 0.0000 0.0000 -6.3357 -3.5210 8.8361 10.3197 0.0000 0.0000 -9.5830 0.2191 1.2735 -1.1034 0.0000 -0.0000
 -2.6794 -46.1426 24.8656 -3.4369 -0.9572 172.9693 3.0576 -1.4204 -0.0091 1.3937 -2.3240 -0.1093 3.7757 2.8939 6.2862 -1.6946 2.7595 0.1415 -4.2420 3.4508 -11.4971 8.9414 -6.4477 -17.5293 -4.7488 -5.9293 1.0408 -6.9376 -4.6460 -4.9987 0.0000 0.0000 16.0107 -1.1517 6.3017 -1.0691 0.0000 -0.0000 -0.0000 -0.0000 -0.0000 -0.0000 -7.6070 8.0780 3.9757 10.1415 2.4253 -6.9749 -0.0000 -0.0000 -3.4238 8.2763 -1.5049 5.1367 0.0000 -0.0000 -0.0000 -0.0000 0.0000 0.0000 -4.7807 -2.6828 1.0454 7.1283 0.0000 0.0000 -5.1613 -1.3133 4.9194 7.0089 0.0000 0.0000 -6.3361 -3.5511 8.8379 10.3164 0.0000 0.0000 -9.5855 0.2428 1.2770 -1.1355 0.0000 -0.0000
 -2.6817 -46.1419 24.8666 -3.4462 -0.9902 172.9652 3.0580 -1.4318 -0.0076 1.3951 -2.3262 -0.1081 3.7745 2.9114 6.2939 -1.6951 2.7574 0.1431 -4.2361 3.4464 -11.5061 8.9428 -6.4490 -17.5381 -4.7555 -5.9509 1.0305 -6.9123 -4.6389 -4.9947 0.0000 0.0000 16.0101 -1.0877 6.3123 -1.0619 0.0000 -0.0000 0.0000 -0.0000 -0.0000 0.0000 -7.6230 8.0865 3.9802 10.1236 2.4048 -6.9728 -0.0000 -0.0000 -3.4179 8.2774 -1.5332 5.0968 0.0000 0.0000 -0.0000 -0.0000 -0.0000 0.0000 -4.7792 -2.7235 0.9886 7.0439 0.0000 0.0000 -5.0825 -1.3648 4.8421 6.9650 0.0000 0.0000 -6.3347 -3.5789 8.8319 10.3099 0.0000 0.0000 -9.5872 0.2668 1.2892 -1.1700 0.0000 -0.0000
 -2.6840 -46.1411 24.8675 -3.4548 -1.0212 172.9600 3.0592 -1.4414 -0.0058 1.3971 -2.3287 -0.1067 3.7733 2.9304 6.3019 -1.6959 2.7560 0.1447 -4.2319 3.4433 -11.5139 8.9467 -6.4518 -17.5447 -4.7630 -5.9720 1.0201 -6.8898 -4.6331 -4.9932 0.0000 0.0000 16.0133 -1.0288 6.3186 -1.0557 0.0000 -0.0000 0.0000 -0.0000 -0.0000 0.0000 -7.6398 8.0933 3.9844 10.1040 2.3853 -6.9687 -0.0000 -0.0000 -3.4177 8.2762 -1.5619 5.0608 -0.0000 -0.0000 0.0000 0.0000 0.0000 -0.0000 -4.7755 -2.7637 0.9276 6.9522 0.0000 0.0000 -4.9965 -1.3897 4.7616 6.9110 0.0000 0.0000 -6.3316 -3.6039 8.8209 10.3012 0.0000 0.0000 -9.5883 0.2897 1.3078 -1.2043 0.0000 -0.0000
 -2.6863 -46.1404 24.8684 -3.4623 -1.0494 172.9536 3.0616 -1.4490 -0.0038 1.3999 -2.3314 -0.1052 3.7715 2.9505 6.3102 -1.6973 2.7554 0.1459 -4.2295 3.4411 -11.5198 8.9531 -6.4548 -17.5486 -4.7691 -5.9923 1.0106 -6.8716 -4.6289 -4.9932 0.0000 0.0000 16.0188 -0.9752 6.3233 -1.0506 -0.0000 -0.0000 0.0000 -0.0000 0.0000 0.0000 -7.6571 8.0973 3.9873 10.0841 2.3684 -6.9612 -0.0000 -0.0000 -3.4224 8.2723 -1.5924 5.0299 0.0000 -0.0000 0.0000 -0.0000 -0.0000 0.0000 -4.7696 -2.8027 0.8640 6.8557 0.0000 0.0000 -4.9053 -1.3872 4.6792 6.8481 0.0000 0.0000 -6.3271 -3.6259 8.8074 10.2915 0.0000 0.0000 -9.5892 0.3099 1.3300 -1.2359 0.0000 -0.0000
 -2.6884 -46.1394 24.8692 -3.4648 -1.0763 172.9474 3.0697 -1.4553 -0.0032 1.3997 -2.3356 -0.1020 3.7728 2.9736 6.3151 -1.6994 2.7540 0.1489 -4.2290 3.4406 -11.5235 8.9613 -6.4591 -17.5497 -4.7746 -6.0095 1.0019 -6.8573 -4.6280 -4.9959 0.0000 0.0000 16.0278 -0.9271 6.3260 -1.0467 0.0000 -0.0000 0.0000 -0.0000 -0.0000 0.0000 -7.6736 8.0982 3.9899 10.0632 2.3552 -6.9526 -0.0000 -0.0000 -3.4313 8.2650 -1.6222 5.0035 -0.0000 0.0000 -0.0000 0.0000 0.0000 -0.0000 -4.7557 -2.8408 0.7971 6.7530 0.0000 0.0000 -4.8093 -1.3590 4.5972 6.7763 0.0000 0.0000 -6.3170 -3.6456 8.7902 10.2814 0.0000 0.0000 -9.5907 0.3261 1.3552 -1.2649 0.0000 -0.0000
 -2.6906 -46.1385 24.8699 -3.4651 -1.0989 172.9390 3.0784 -1.4586 -0.0010 1.4039 -2.3386 -0.1003 3.7705 2.9954 6.3233 -1.7009 2.7543 0.1494 -4.2301 3.4411 -11.5247 8.9701 -6.4644 -17.5482 -4.7778 -6.0259 0.9941 -6.8478 -4.6275 -4.9993 0.0000 0.0000 16.0392 -0.8852 6.3253 -1.0416 0.0000 -0.0000 -0.0000 -0.0000 -0.0000 0.0000 -7.6893 8.0958 3.9905 10.0412 2.3466 -6.9397 -0.0000 -0.0000 -3.4447 8.2544 -1.6518 4.9814 -0.0000 0.0000 -0.0000 -0.0000 -0.0000 0.0000 -4.7409 -2.8755 0.7332 6.6519 0.0000 0.0000 -4.7130 -1.3083 4.5140 6.6985 0.0000 0.0000 -6.3047 -3.6612 8.7793 10.2707 0.0000 0.0000 -9.5917 0.3375 1.3762 -1.2889 0.0000 -0.0000
 -2.6926 -46.1376 24.8705 -3.4638 -1.1193 172.9300 3.0887 -1.4605 0.0008 1.4078 -2.3422 -0.0988 3.7692 3.0180 6.3314 -1.7020 2.7550 0.1498 -4.2325 3.4428 -11.5240 8.9778 -6.4707 -17.5446 -4.7794 -6.0398 0.9873 -6.8423 -4.6289 -5.0041 0.0000 0.0000 16.0534 -0.8487 6.3251 -1.0390 -0.0000 0.0000 0.0000 -0.0000 -0.0000 0.0000 -7.7035 8.0901 3.9908 10.0191 2.3431 -6.9269 -0.0000 -0.0000 -3.4597 8.2389 -1.6801 4.9647 0.0000 -0.0000 -0.0000 -0.0000 0.0000 0.0000 -4.7249 -2.9085 0.6709 6.5515 0.0000 0.0000 -4.6163 -1.2399 4.4310 6.6156 0.0000 0.0000 -6.2922 -3.6749 8.7704 10.2623 0.0000 0.0000 -9.5936 0.3435 1.3950 -1.3078 0.0000 -0.0000
 -2.6948 -46.1369 24.8710 -3.4682 -1.1334 172.9180 3.0918 -1.4589 0.0051 1.4127 -2.3428 -0.0990 3.7693 3.0368 6.3427 -1.7027 2.7580 0.1476 -4.2371 3.4451 -11.5211 8.9840 -6.4772 -17.5395 -4.7792 -6.0531 0.9821 -6.8402 -4.6299 -5.0098 0.0000 0.0000 16.0692 -0.8162 6.3252 -1.0370 0.0000 -0.0000 -0.0000 -0.0000 0.0000 -0.0000 -7.7164 8.0839 3.9899 9.9953 2.3422 -6.9120 -0.0000 -0.0000 -3.4759 8.2179 -1.7070 4.9516 0.0000 -0.0000 0.0000 0.0000 -0.0000 0.0000 -4.7202 -2.9363 0.6135 6.4597 0.0000 0.0000 -4.5234 -1.1590 4.3483 6.5306 0.0000 0.0000 -6.2871 -3.6834 8.7702 10.2543 0.0000 0.0000 -9.5938 0.3435 1.4078 -1.3206 0.0000 -0.0000
 -2.6968 -46.1360 24.8715 -3.4652 -1.1519 172.9089 3.1046 -1.4599 0.0054 1.4132 -2.3489 -0.0961 3.7721 3.0625 6.3480 -1.7032 2.7580 0.1490 -4.2419 3.4480 -11.5177 8.9871 -6.4843 -17.5339 -4.7772 -6.0626 0.9779 -6.8401 -4.6341 -5.0171 0.0000 0.0000 16.0865 -0.7870 6.3271 -1.0359 -0.0000 0.0000 -0.0000 0.0000 0.0000 -0.0000 -7.7246 8.0749 3.9894 9.9699 2.3456 -6.9013 -0.0000 -0.0000 -3.4889 8.1911 -1.7310 4.9402 -0.0000 0.0000 -0.0000 -0.0000 -0.0000 0.0000 -4.7040 -2.9679 0.5540 6.3632 0.0000 0.0000 -4.4280 -1.0718 4.2671 6.4435 0.0000 0.0000 -6.2775 -3.6966 8.7717 10.2537 0.0000 0.0000 -9.5984 0.3398 1.4147 -1.3290 0.0000 -0.0000
 -2.6990 -46.1353 24.8719 -3.4685 -1.1636 172.8959 3.1083 -1.4571 0.0100 1.4162 -2.3491 -0.0961 3.7757 3.0808 6.3579 -1.7023 2.7608 0.1458 -4.2481 3.4515 -11.5120 8.9862 -6.4916 -17.5287 -4.7735 -6.0720 0.9759 -6.8418 -4.6369 -5.0230 0.0000 0.0000 16.1032 -0.7615 6.3313 -1.0363 0.0000 -0.0000 -0.0000 -0.0000 -0.0000 0.0000 -7.7320 8.0677 3.9894 9.9443 2.3500 -6.8901 -0.0000 -0.0000 -3.5004 8.1602 -1.7540 4.9312 -0.0000 0.0000 -0.0000 0.0000 0.0000 0.0000 -4.7011 -2.9934 0.5009 6.2772 0.0000 0.0000 -4.3385 -0.9835 4.1857 6.3574 0.0000 0.0000 -6.2742 -3.7038 8.7828 10.2505 0.0000 0.0000 -9.5998 0.3313 1.4157 -1.3324 0.0000 -0.0000
 -2.7010 -46.1347 24.8724 -3.4708 -1.1787 172.8842 3.1141 -1.4570 0.0120 1.4169 -2.3527 -0.0945 3.7820 3.1029 6.3658 -1.7011 2.7625 0.1447 -4.2541 3.4551 -11.5079 8.9808 -6.4991 -17.5243 -4.7689 -6.0795 0.9747 -6.8439 -4.6409 -5.0309 0.0000 0.0000 16.1208 -0.7382 6.3380 -1.0394 -0.0000 -0.0000 0.0000 -0.0000 -0.0000 0.0000 -7.7354 8.0601 3.9887 9.9161 2.3570 -6.8831 -0.0000 -0.0000 -3.5063 8.1233 -1.7755 4.9226 0.0000 0.0000 -0.0000 -0.0000 0.0000 0.0000 -4.6962 -3.0223 0.4468 6.1903 0.0000 0.0000 -4.2483 -0.8992 4.1050 6.2723 0.0000 0.0000 -6.2728 -3.7156 8.7980 10.2538 0.0000 0.0000 -9.6046 0.3211 1.4099 -1.3329 0.0000 -0.0000
